<svg width="24" height="22" viewBox="0 0 24 22" fill="none" xmlns="http://www.w3.org/2000/svg">
<path d="M19.8334 3.51366C18.8189 2.52312 17.6097 1.73696 16.2763 1.20101C14.9429 0.665066 13.512 0.39007 12.0671 0.392061C6.01279 0.380103 1.06833 5.12045 1.05591 10.9487C1.05192 12.8167 1.55812 14.6323 2.50831 16.2354L0.944242 21.7189L6.76879 20.2574C8.37481 21.1038 10.1813 21.5557 12.0219 21.5594C18.0762 21.5713 23.0207 16.831 23.0331 11.0028C23.0391 8.17404 21.9027 5.51386 19.8334 3.51366ZM12.0258 19.7661C10.3847 19.7628 8.77777 19.3327 7.37125 18.5293L7.039 18.3365L3.57756 19.205L4.50481 15.9618L4.28375 15.6304C3.37499 14.2271 2.89432 12.606 2.89658 10.9523C2.90691 6.10613 7.01803 2.16472 12.0522 2.17466C14.4916 2.17948 16.785 3.10201 18.5001 4.77061C19.3494 5.58777 20.0217 6.55908 20.4782 7.62824C20.9346 8.6974 21.1661 9.84314 21.1591 10.9991C21.171 15.8453 17.0599 19.776 12.0258 19.7661ZM17.0517 13.2005C16.7748 13.0719 15.4234 12.4288 15.1796 12.3322C14.9248 12.2463 14.7475 12.2033 14.5584 12.4591C14.3693 12.7256 13.8469 13.3223 13.6913 13.4928C13.5357 13.6739 13.3693 13.695 13.0924 13.5557C12.8155 13.427 11.929 13.1371 10.8886 12.2383C10.0696 11.5322 9.52808 10.6665 9.36232 10.3993C9.20765 10.1322 9.34101 9.99366 9.48545 9.85518C9.60767 9.738 9.76332 9.54617 9.8967 9.39699C10.0301 9.24781 10.0858 9.1305 10.1748 8.95989C10.2639 8.7786 10.2199 8.62907 10.1536 8.50085C10.0874 8.37262 9.53574 7.06925 9.31511 6.5351C9.09444 6.02229 8.86144 6.08587 8.69514 6.07487L8.1629 6.07382C7.97439 6.07345 7.68596 6.13692 7.43036 6.40328C7.18584 6.66966 6.47482 7.30872 6.47205 8.61099C6.46927 9.91327 7.45345 11.1748 7.58615 11.3458C7.71882 11.5276 9.52054 14.1997 12.268 15.3473C12.9217 15.6262 13.4314 15.7873 13.8303 15.9055C14.4841 16.1096 15.0829 16.0787 15.5599 16.0156C16.0923 15.942 17.1912 15.3784 17.4143 14.7597C17.6485 14.1411 17.6496 13.618 17.5722 13.5005C17.4949 13.3829 17.3287 13.3292 17.0517 13.2005Z" fill="white"/>
</svg>
